{
    "asset" : {
        "generator" : "Khronos glTF Blender I/O v1.1.45",
        "version" : "2.0"
    },
    "scene" : 0,
    "scenes" : [
        {
            "name" : "Scene",
            "nodes" : [
                0,
                1,
                2
            ]
        }
    ],
    "nodes" : [
        {
            "name" : "Camera",
            "translation" : [
                0,
                10,
                0
            ]
        },
        {
            "mesh" : 0,
            "name" : "BezierCurve",
            "rotation" : [
                0,
                0.5872517228126526,
                0,
                0.8094043731689453
            ],
            "scale" : [
                2.5311882495880127,
                1.8008447885513306,
                2.5311882495880127
            ],
            "translation" : [
                0.008768647909164429,
                0.15909530222415924,
                -0.16241946816444397
            ]
        },
        {
            "mesh" : 1,
            "name" : "BezierCurve.001",
            "rotation" : [
                0,
                0.5872517228126526,
                0,
                0.8094043731689453
            ],
            "scale" : [
                2.5311882495880127,
                1.8008447885513306,
                2.5311882495880127
            ],
            "translation" : [
                0.008768647909164429,
                0.15909530222415924,
                -0.16241946816444397
            ]
        }
    ],
    "materials" : [
        {
            "doubleSided" : true,
            "name" : "LAWA",
            "pbrMetallicRoughness" : {}
        }
    ],
    "meshes" : [
        {
            "name" : "BezierCurve.007",
            "primitives" : [
                {
                    "attributes" : {
                        "POSITION" : 0,
                        "NORMAL" : 1,
                        "TEXCOORD_0" : 2
                    },
                    "indices" : 3,
                    "material" : 0
                }
            ]
        },
        {
            "name" : "BezierCurve.008",
            "primitives" : [
                {
                    "attributes" : {
                        "POSITION" : 4,
                        "NORMAL" : 5,
                        "TEXCOORD_0" : 6
                    },
                    "indices" : 7,
                    "material" : 0
                }
            ]
        }
    ],
    "accessors" : [
        {
            "bufferView" : 0,
            "componentType" : 5126,
            "count" : 41,
            "max" : [
                0.7998104095458984,
                0.25999999046325684,
                0.7770065069198608
            ],
            "min" : [
                -0.801644504070282,
                -0.25999999046325684,
                -1.1089788675308228
            ],
            "type" : "VEC3"
        },
        {
            "bufferView" : 1,
            "componentType" : 5126,
            "count" : 41,
            "type" : "VEC3"
        },
        {
            "bufferView" : 2,
            "componentType" : 5126,
            "count" : 41,
            "type" : "VEC2"
        },
        {
            "bufferView" : 3,
            "componentType" : 5123,
            "count" : 66,
            "type" : "SCALAR"
        },
        {
            "bufferView" : 4,
            "componentType" : 5126,
            "count" : 22,
            "max" : [
                -0.10194987058639526,
                0.25999999046325684,
                1.1065441370010376
            ],
            "min" : [
                -0.7988431453704834,
                -0.25999999046325684,
                0.15153060853481293
            ],
            "type" : "VEC3"
        },
        {
            "bufferView" : 5,
            "componentType" : 5126,
            "count" : 22,
            "type" : "VEC3"
        },
        {
            "bufferView" : 6,
            "componentType" : 5126,
            "count" : 22,
            "type" : "VEC2"
        },
        {
            "bufferView" : 7,
            "componentType" : 5123,
            "count" : 30,
            "type" : "SCALAR"
        }
    ],
    "bufferViews" : [
        {
            "buffer" : 0,
            "byteLength" : 492,
            "byteOffset" : 0
        },
        {
            "buffer" : 0,
            "byteLength" : 492,
            "byteOffset" : 492
        },
        {
            "buffer" : 0,
            "byteLength" : 328,
            "byteOffset" : 984
        },
        {
            "buffer" : 0,
            "byteLength" : 132,
            "byteOffset" : 1312
        },
        {
            "buffer" : 0,
            "byteLength" : 264,
            "byteOffset" : 1444
        },
        {
            "buffer" : 0,
            "byteLength" : 264,
            "byteOffset" : 1708
        },
        {
            "buffer" : 0,
            "byteLength" : 176,
            "byteOffset" : 1972
        },
        {
            "buffer" : 0,
            "byteLength" : 60,
            "byteOffset" : 2148
        }
    ],
    "buffers" : [
        {
            "byteLength" : 2208,
            "uri" : "model.bin"
        }
    ]
}
